<svg width="16" height="16" viewBox="0 0 16 16" fill="none" xmlns="http://www.w3.org/2000/svg">
<path d="M1.06663 9.68265V14.1334C1.06663 14.6284 1.26325 15.1032 1.6133 15.4533C1.96338 15.8034 2.43826 16 2.93326 16H12.5333C13.0283 16 13.5031 15.8034 13.8532 15.4533C14.2033 15.1033 14.3999 14.6284 14.3999 14.1334V9.68265C14.7185 9.5316 14.9877 9.29332 15.1765 8.9955C15.3653 8.69768 15.4658 8.35245 15.4665 7.99998V6.13335C15.4665 5.63821 15.2699 5.16349 14.9199 4.8134C14.5698 4.46332 14.0951 4.26673 13.5999 4.26673H13.5439C14.0078 3.35768 13.966 2.27286 13.4332 1.40234C12.9007 0.531811 11.9539 0.000714288 10.9332 0C9.67427 0 8.48864 0.592811 7.73326 1.6001C6.97788 0.592859 5.79221 0 4.5333 0C3.51263 0.00074405 2.56587 0.531811 2.03329 1.40234C1.50053 2.27286 1.45872 3.35768 1.92262 4.26673H1.86662C1.37148 4.26673 0.896764 4.46334 0.546668 4.8134C0.196591 5.16347 0 5.63816 0 6.13335V7.99998C0.000744097 8.35247 0.101191 8.69769 0.289991 8.9955C0.478792 9.29331 0.747955 9.5316 1.06661 9.68265H1.06663ZM2.66673 14.1334V9.8666H6.93332V14.3999H2.9333C2.78598 14.3999 2.66675 14.2807 2.66675 14.1333L2.66673 14.1334ZM12.8001 14.1334H12.7999C12.7999 14.2041 12.7718 14.272 12.722 14.322C12.6719 14.3718 12.604 14.3999 12.5334 14.3999H8.53335V9.86663H12.7999L12.8001 14.1334ZM13.8667 6.13335V7.99998C13.8667 8.07066 13.8386 8.13856 13.7885 8.18859C13.7385 8.23863 13.6706 8.26672 13.5999 8.26672H8.53325V5.86661H13.5999C13.6706 5.86661 13.7385 5.8947 13.7885 5.94474C13.8386 5.99478 13.8667 6.06267 13.8667 6.13335ZM10.9332 1.60005C11.4096 1.60005 11.8497 1.85414 12.088 2.26672C12.3261 2.67911 12.3261 3.18749 12.088 3.60006C11.8497 4.01245 11.4096 4.26673 10.9332 4.26673H8.53332V3.99998C8.53332 3.36346 8.78611 2.75293 9.23628 2.30298C9.68624 1.85283 10.2968 1.60002 10.9333 1.60002L10.9332 1.60005ZM3.19988 2.93339C3.19988 2.57978 3.34031 2.24048 3.59032 1.99048C3.8405 1.74048 4.1796 1.60004 4.53322 1.60004C5.16975 1.60004 5.78027 1.85283 6.23023 2.303C6.68038 2.75296 6.93318 3.36348 6.93318 4V4.26675H4.53327C4.17966 4.26675 3.84055 4.12612 3.59036 3.87612C3.34036 3.62612 3.19992 3.28702 3.19992 2.9334L3.19988 2.93339ZM1.59978 6.13335C1.59978 5.98603 1.7192 5.86661 1.86652 5.86661H6.9332V8.26652L1.86652 8.26671C1.7192 8.26671 1.59978 8.14729 1.59978 7.99996V6.13335Z" fill="#FF8C3F"/>
</svg>
