<svg width="57" height="56" viewBox="0 0 57 56" fill="none" xmlns="http://www.w3.org/2000/svg">
                    <path d="M14.6498 28.1006H12.3624V37.022H14.6498V28.1006Z" fill="#3D5CFF" />
                    <path d="M24.3261 37.0281V25.1191H22.0601V29.3357C21.4225 28.5191 20.4744 28.11 19.214 28.11C18.0867 28.11 17.1698 28.5191 16.4632 29.3357C15.7566 30.1539 15.4033 31.2295 15.4033 32.5624C15.4033 33.8953 15.7566 34.9726 16.4632 35.7892C17.1698 36.6107 18.0835 37.0231 19.2074 37.0231C20.4678 37.0231 21.416 36.614 22.0535 35.7974V37.0281H24.3261ZM21.5096 34.2682C21.1366 34.7119 20.614 34.933 19.9436 34.933C19.2732 34.933 18.7177 34.7119 18.3102 34.2682C17.9076 33.8294 17.7072 33.2668 17.7072 32.5773C17.7072 31.8877 17.9093 31.3103 18.3102 30.8715C18.7177 30.4278 19.2617 30.2067 19.9436 30.2067C20.6256 30.2067 21.1333 30.4261 21.5096 30.8633C21.8876 31.3021 22.0765 31.8696 22.0765 32.569C22.0765 33.2685 21.8876 33.8195 21.5096 34.2682Z" fill="#3D5CFF" />
                    <path d="M29.5348 28.1162C29.0057 28.1162 28.4832 28.2102 27.9688 28.3966C27.4627 28.5798 26.9944 28.8503 26.5639 29.2099C26.1366 29.5646 25.7932 30.0348 25.5336 30.6204C25.2739 31.211 25.1441 31.8626 25.1441 32.5769C25.1441 33.9412 25.5681 35.0267 26.416 35.8333C27.259 36.6367 28.4273 37.0376 29.9177 37.0376L29.9473 37.0227C30.3828 37.0227 30.8034 36.9716 31.2044 36.8677C31.607 36.7638 31.9307 36.6466 32.1755 36.513C32.4204 36.381 32.6488 36.2243 32.8591 36.0478C33.0892 35.8564 33.2272 35.7344 33.2716 35.6865C33.3308 35.6172 33.3751 35.5661 33.4031 35.5314L32.1821 34.3651L31.9389 34.5647C31.7812 34.6835 31.5248 34.8072 31.1666 34.9409C30.8084 35.0728 30.4386 35.1405 30.0558 35.1405C29.3245 35.1405 28.7444 34.9821 28.3123 34.667C27.8768 34.3519 27.5958 33.9676 27.4742 33.5156H33.8517C33.8812 33.2945 33.896 33.0421 33.896 32.7617C33.896 31.2951 33.4934 30.1519 32.6899 29.3353C31.8863 28.5237 30.8347 28.1179 29.5348 28.1179V28.1162ZM27.4611 31.9995C27.4857 31.4881 27.6796 31.0444 28.0428 30.6699C28.4109 30.2954 28.9055 30.109 29.5283 30.109C30.1511 30.109 30.6391 30.2954 30.9924 30.6699C31.3408 31.0444 31.5199 31.4865 31.5297 31.9995H27.4627H27.4611Z" fill="#3D5CFF" />
                    <path d="M38.8792 28.1071C37.5893 28.1071 36.3339 28.4008 35.1129 28.9864L35.6716 30.6624C35.9806 30.5156 36.4078 30.3738 36.9517 30.2418C37.4956 30.1098 38.0281 30.0422 38.5473 30.0422C39.8521 30.0422 40.4896 30.6624 40.4601 31.903C39.7009 31.6803 38.9351 31.5698 38.1661 31.5698C37.2294 31.5698 36.4127 31.8139 35.716 32.3006C35.0193 32.7889 34.6709 33.4652 34.6709 34.3313C34.6709 35.1974 34.965 35.8424 35.5533 36.3093C36.1367 36.7728 36.9189 37.0038 37.8999 37.0038C39.1109 37.0087 39.9868 36.6326 40.5258 35.8737L40.5406 37.0236H42.7622V32.0416C42.7622 30.7169 42.4467 29.7304 41.8141 29.0804C41.1814 28.4305 40.2037 28.1055 38.8792 28.1055V28.1071ZM40.4683 33.8529C40.4683 34.3445 40.2842 34.719 39.9161 34.9747C39.5431 35.2353 39.0879 35.3673 38.5473 35.3673L38.5555 35.3591C38.0888 35.3591 37.7076 35.2535 37.4085 35.0423C37.1045 34.8246 36.9534 34.5342 36.9534 34.1713C36.9534 33.8084 37.1243 33.5147 37.4677 33.3069C37.8111 33.1007 38.2367 32.9967 38.7478 32.9967C39.3558 32.9967 39.9293 33.0924 40.4683 33.2854V33.8546V33.8529Z" fill="#3D5CFF" />
                    <path d="M50.3013 32.7517C49.9627 32.3426 49.5503 32.0704 49.0655 31.9318C48.5791 31.7932 48.0944 31.6827 47.6096 31.5986C47.1249 31.5144 46.7124 31.4039 46.3739 31.267C46.0354 31.1284 45.8661 30.9222 45.8661 30.6467C45.8661 30.1353 46.2835 29.8796 47.1166 29.8796C47.9941 29.8796 48.8404 30.1106 49.6538 30.5741L50.3752 29.0301C49.4731 28.4246 48.3737 28.1211 47.0805 28.1211C46.0945 28.1211 45.2778 28.357 44.6321 28.8304C43.9846 29.3022 43.6609 29.972 43.6609 30.8397C43.6609 31.3709 43.7841 31.8196 44.029 32.1842C44.2689 32.5488 44.5778 32.8078 44.9558 32.9595C45.3337 33.1113 45.738 33.2449 46.1701 33.3588C46.6352 33.4776 47.0361 33.5633 47.3681 33.6178C47.7312 33.6772 48.0402 33.7844 48.2949 33.9427C48.5446 34.1011 48.6695 34.3024 48.6695 34.5482C48.6695 35.0497 48.2225 35.3021 47.3303 35.3021C46.8603 35.3021 46.3525 35.2179 45.8086 35.0513C45.245 34.8798 44.7767 34.6703 44.4036 34.4245L43.5804 35.924C44.6304 36.6911 45.9138 37.0755 47.4338 37.0755L47.3894 37.0837C48.4378 37.0837 49.2693 36.8445 49.8822 36.3678C50.5001 35.8861 50.809 35.213 50.809 34.3519C50.809 33.697 50.6398 33.1658 50.3013 32.7566V32.7517Z" fill="#3D5CFF" />
                    <path d="M19.7535 44.4968C20.1167 43.9012 20.2975 43.2265 20.2975 42.4726C20.2975 41.4779 19.9294 40.6365 19.1948 39.947C18.4636 39.2624 17.5023 38.9209 16.311 38.9209C15.3299 38.9209 14.4689 39.231 13.7294 39.8513C12.9883 40.4716 12.5101 41.2403 12.2949 42.1542C13.6867 42.5337 14.4574 42.7399 14.6053 42.7745C14.7318 42.2582 14.9454 41.8441 15.2445 41.534C15.5436 41.2238 15.9116 41.0688 16.3471 41.0688C16.7826 41.0688 17.1506 41.1941 17.4366 41.4449C17.7209 41.6956 17.8638 42.0635 17.8638 42.5452C17.8638 42.9543 17.7685 43.314 17.5762 43.6241C17.3791 43.9441 16.988 44.3549 16.3997 44.858L12.428 48.2761V50.1667H20.166L20.189 48.0914H15.8854L17.7685 46.4747C18.7347 45.7406 19.397 45.0824 19.7552 44.4968H19.7535Z" fill="#3D5CFF" />
                    <path d="M24.4515 39.0977H22.0753V50.1669H24.4515V39.0977Z" fill="#3D5CFF" />
                    <path d="M25.3001 41.1647H28.419V50.1669H30.8099V41.1647H33.914V39.0977H25.3001V41.1647Z" fill="#3D5CFF" />
                    <path d="M13.5118 24.6279C12.7575 24.6279 12.1479 25.2416 12.1479 25.9972C12.1479 26.7527 12.7592 27.3664 13.5118 27.3664C14.2644 27.3664 14.8757 26.7527 14.8757 25.9972C14.8757 25.2416 14.2644 24.6279 13.5118 24.6279Z" fill="#3D5CFF" />
                    <path d="M48.3404 21.4926L8.87459 6.63407L6.74823 5.83398V8.11381V46.5543V49.0486L8.87459 47.7651L14.2447 44.5301L11.3773 43.7647L8.87459 45.2725V8.91554L46.0086 22.8964L40.1275 26.4416L42.9916 27.207L48.5524 23.8549L50.8825 22.451L48.3404 21.4926Z" fill="#3D5CFF" />
                </svg>