<svg width="22" height="22" viewBox="0 0 22 22" fill="none" xmlns="http://www.w3.org/2000/svg">
<path d="M17.8835 13.9231V10.3022C17.8835 7.11537 15.6868 4.43228 12.7281 3.6868C12.8522 3.43767 12.9224 3.15719 12.9224 2.86049C12.9224 1.8346 12.0878 1 11.0619 1C10.0361 1 9.20147 1.8346 9.20147 2.86045C9.20147 3.15716 9.27163 3.43763 9.3957 3.68676C6.437 4.43225 4.24029 7.11537 4.24029 10.3022V13.923C3.51846 14.179 3 14.8684 3 15.6768C3 16.7027 3.8346 17.5373 4.86045 17.5373H8.02358C8.31164 18.9509 9.56448 20.0179 11.0619 20.0179C12.5594 20.0179 13.8122 18.9509 14.1003 17.5373H17.2634C18.2893 17.5373 19.1239 16.7027 19.1239 15.6768C19.1238 14.8684 18.6054 14.1791 17.8835 13.9231ZM11.0619 2.24029C11.4039 2.24029 11.6821 2.5185 11.6821 2.86045C11.6821 3.2024 11.4039 3.48061 11.0619 3.48061C10.72 3.48061 10.4418 3.2024 10.4418 2.86045C10.4418 2.5185 10.72 2.24029 11.0619 2.24029ZM11.0619 18.7776C10.2534 18.7776 9.56415 18.255 9.30815 17.5332H12.8157C12.5597 18.255 11.8704 18.7776 11.0619 18.7776ZM17.2634 16.297H4.86045C4.5185 16.297 4.24029 16.0188 4.24029 15.6768C4.24029 15.3349 4.5185 15.0567 4.86045 15.0567H6.10077C6.44324 15.0567 6.72093 14.779 6.72093 14.4365C6.72093 14.094 6.44328 13.8164 6.10077 13.8164H5.48057V10.3022C5.48057 7.22461 7.98436 4.72082 11.0619 4.72082C14.1395 4.72082 16.6433 7.22461 16.6433 10.3022V13.8164H16.0226C15.6801 13.8164 15.4024 14.094 15.4024 14.4365C15.4024 14.779 15.6801 15.0567 16.0226 15.0567H17.2634C17.6054 15.0567 17.8836 15.3349 17.8836 15.6768C17.8836 16.0188 17.6053 16.297 17.2634 16.297Z" fill="#3D5CFF"/>
<path d="M17.8835 13.9231V10.3022C17.8835 7.11537 15.6868 4.43228 12.7281 3.6868C12.8522 3.43767 12.9224 3.15719 12.9224 2.86049C12.9224 1.8346 12.0878 1 11.0619 1C10.0361 1 9.20147 1.8346 9.20147 2.86045C9.20147 3.15716 9.27163 3.43763 9.3957 3.68676C6.437 4.43225 4.24029 7.11537 4.24029 10.3022V13.923C3.51846 14.179 3 14.8684 3 15.6768C3 16.7027 3.8346 17.5373 4.86045 17.5373H8.02358C8.31164 18.9509 9.56448 20.0179 11.0619 20.0179C12.5594 20.0179 13.8122 18.9509 14.1003 17.5373H17.2634C18.2893 17.5373 19.1239 16.7027 19.1239 15.6768C19.1238 14.8684 18.6054 14.1791 17.8835 13.9231ZM11.0619 2.24029C11.4039 2.24029 11.6821 2.5185 11.6821 2.86045C11.6821 3.2024 11.4039 3.48061 11.0619 3.48061C10.72 3.48061 10.4418 3.2024 10.4418 2.86045C10.4418 2.5185 10.72 2.24029 11.0619 2.24029ZM11.0619 18.7776C10.2534 18.7776 9.56415 18.255 9.30815 17.5332H12.8157C12.5597 18.255 11.8704 18.7776 11.0619 18.7776ZM17.2634 16.297H4.86045C4.5185 16.297 4.24029 16.0188 4.24029 15.6768C4.24029 15.3349 4.5185 15.0567 4.86045 15.0567H6.10077C6.44324 15.0567 6.72093 14.779 6.72093 14.4365C6.72093 14.094 6.44328 13.8164 6.10077 13.8164H5.48057V10.3022C5.48057 7.22461 7.98436 4.72082 11.0619 4.72082C14.1395 4.72082 16.6433 7.22461 16.6433 10.3022V13.8164H16.0226C15.6801 13.8164 15.4024 14.094 15.4024 14.4365C15.4024 14.779 15.6801 15.0567 16.0226 15.0567H17.2634C17.6054 15.0567 17.8836 15.3349 17.8836 15.6768C17.8836 16.0188 17.6053 16.297 17.2634 16.297Z" stroke="#3D5CFF"/>
<path d="M6.77076 10.303C6.77076 7.93693 8.69578 6.01191 11.0618 6.01191C11.3767 6.01191 11.632 6.26718 11.632 6.58208C11.632 6.89697 11.3767 7.15224 11.0618 7.15224C9.32445 7.15224 7.91109 8.5656 7.91109 10.303C7.91109 10.6179 7.65582 10.8731 7.34093 10.8731C7.02603 10.8731 6.77076 10.6178 6.77076 10.303Z" fill="#3D5CFF" stroke="#3D5CFF" stroke-width="0.1"/>
</svg>
