<svg width="17" height="20" viewBox="0 0 17 20" fill="none" xmlns="http://www.w3.org/2000/svg">
<path d="M14.8835 12.9231V9.30224C14.8835 6.11537 12.6868 3.43228 9.72814 2.6868C9.8522 2.43767 9.92237 2.15719 9.92237 1.86049C9.92237 0.834596 9.08777 0 8.06192 0C7.03606 0 6.20147 0.834596 6.20147 1.86045C6.20147 2.15716 6.27163 2.43763 6.3957 2.68676C3.437 3.43225 1.24029 6.11537 1.24029 9.3022V12.923C0.518461 13.179 0 13.8684 0 14.6768C0 15.7027 0.834596 16.5373 1.86045 16.5373H5.02358C5.31164 17.9509 6.56448 19.0179 8.06192 19.0179C9.55935 19.0179 10.8122 17.9509 11.1003 16.5373H14.2634C15.2893 16.5373 16.1239 15.7027 16.1239 14.6768C16.1238 13.8684 15.6054 13.1791 14.8835 12.9231ZM8.06192 1.24029C8.40387 1.24029 8.68208 1.5185 8.68208 1.86045C8.68208 2.2024 8.40387 2.48061 8.06192 2.48061C7.71997 2.48061 7.44175 2.2024 7.44175 1.86045C7.44175 1.5185 7.71997 1.24029 8.06192 1.24029ZM8.06192 17.7776C7.25343 17.7776 6.56415 17.255 6.30815 16.5332H9.81572C9.55969 17.255 8.8704 17.7776 8.06192 17.7776ZM14.2634 15.297H1.86045C1.5185 15.297 1.24029 15.0188 1.24029 14.6768C1.24029 14.3349 1.5185 14.0567 1.86045 14.0567H3.10077C3.44324 14.0567 3.72093 13.779 3.72093 13.4365C3.72093 13.094 3.44328 12.8164 3.10077 12.8164H2.48057V9.30217C2.48057 6.22461 4.98436 3.72082 8.06192 3.72082C11.1395 3.72082 13.6433 6.22461 13.6433 9.30217V12.8164H13.0226C12.6801 12.8164 12.4024 13.094 12.4024 13.4365C12.4024 13.779 12.6801 14.0567 13.0226 14.0567H14.2634C14.6054 14.0567 14.8836 14.3349 14.8836 14.6768C14.8836 15.0188 14.6053 15.297 14.2634 15.297Z" fill="#3D5CFF"/>
<path d="M14.8835 12.9231V9.30224C14.8835 6.11537 12.6868 3.43228 9.72814 2.6868C9.8522 2.43767 9.92237 2.15719 9.92237 1.86049C9.92237 0.834596 9.08777 0 8.06192 0C7.03606 0 6.20147 0.834596 6.20147 1.86045C6.20147 2.15716 6.27163 2.43763 6.3957 2.68676C3.437 3.43225 1.24029 6.11537 1.24029 9.3022V12.923C0.518461 13.179 0 13.8684 0 14.6768C0 15.7027 0.834596 16.5373 1.86045 16.5373H5.02358C5.31164 17.9509 6.56448 19.0179 8.06192 19.0179C9.55935 19.0179 10.8122 17.9509 11.1003 16.5373H14.2634C15.2893 16.5373 16.1239 15.7027 16.1239 14.6768C16.1238 13.8684 15.6054 13.1791 14.8835 12.9231ZM8.06192 1.24029C8.40387 1.24029 8.68208 1.5185 8.68208 1.86045C8.68208 2.2024 8.40387 2.48061 8.06192 2.48061C7.71997 2.48061 7.44175 2.2024 7.44175 1.86045C7.44175 1.5185 7.71997 1.24029 8.06192 1.24029ZM8.06192 17.7776C7.25343 17.7776 6.56415 17.255 6.30815 16.5332H9.81572C9.55969 17.255 8.8704 17.7776 8.06192 17.7776ZM14.2634 15.297H1.86045C1.5185 15.297 1.24029 15.0188 1.24029 14.6768C1.24029 14.3349 1.5185 14.0567 1.86045 14.0567H3.10077C3.44324 14.0567 3.72093 13.779 3.72093 13.4365C3.72093 13.094 3.44328 12.8164 3.10077 12.8164H2.48057V9.30217C2.48057 6.22461 4.98436 3.72082 8.06192 3.72082C11.1395 3.72082 13.6433 6.22461 13.6433 9.30217V12.8164H13.0226C12.6801 12.8164 12.4024 13.094 12.4024 13.4365C12.4024 13.779 12.6801 14.0567 13.0226 14.0567H14.2634C14.6054 14.0567 14.8836 14.3349 14.8836 14.6768C14.8836 15.0188 14.6053 15.297 14.2634 15.297Z" stroke="#3D5CFF"/>
</svg>
